<?xml version="1.0" standalone="no"?>
<!DOCTYPE svg PUBLIC "-//W3C//DTD SVG 20010904//EN"
 "http://www.w3.org/TR/2001/REC-SVG-20010904/DTD/svg10.dtd">
<svg version="1.0" xmlns="http://www.w3.org/2000/svg"
 width="180.000000pt" height="180.000000pt" viewBox="0 0 180.000000 180.000000"
 preserveAspectRatio="xMidYMid meet">

<g transform="translate(0.000000,180.000000) scale(0.100000,-0.100000)"
fill="#000000" stroke="none">
<path d="M1185 1759 c-11 -4 -132 -120 -270 -258 -137 -138 -257 -251 -265
-251 -18 0 -184 -166 -194 -193 -9 -27 15 -66 77 -125 42 -39 63 -52 86 -52
38 0 42 -25 6 -34 -14 -4 -45 -26 -70 -49 l-45 -44 0 -349 c0 -343 3 -374 31
-374 24 0 39 35 39 90 l0 59 43 -19 c72 -32 125 -40 143 -23 29 29 12 47 -71
76 -108 38 -115 46 -115 125 0 57 2 63 17 56 104 -45 262 -75 312 -59 21 6 30
48 13 59 -4 2 -51 9 -105 15 -99 11 -161 30 -209 63 -24 17 -28 26 -28 70 0
44 2 49 18 43 142 -59 276 -76 414 -53 53 8 121 27 152 41 l56 26 0 -100 c0
-95 -1 -101 -26 -124 -14 -13 -47 -31 -72 -41 -85 -29 -92 -33 -92 -53 0 -33
23 -44 72 -31 23 7 60 21 80 31 l38 19 0 -124 c0 -108 2 -126 17 -135 11 -6
24 -6 35 0 17 9 18 34 18 353 0 405 5 386 -117 446 -66 32 -72 38 -75 69 -3
34 -4 35 -66 47 -63 13 -120 41 -176 87 -28 23 -29 26 -17 55 37 88 222 285
347 368 87 58 164 133 164 160 0 19 -104 130 -128 136 -10 3 -27 2 -37 -3z
m58 -107 l27 -28 -33 -31 c-17 -16 -60 -49 -94 -71 -33 -23 -99 -77 -145 -120
-72 -69 -104 -105 -190 -216 l-16 -21 -27 25 -26 24 233 233 c128 128 235 233
239 233 3 0 17 -13 32 -28z m-524 -516 l44 -44 -72 -74 -71 -73 -47 48 -48 47
70 70 c38 38 72 70 75 70 3 0 25 -20 49 -44z m212 -221 c30 -14 62 -25 71 -25
9 0 20 -5 23 -10 10 -17 -15 -79 -47 -116 -29 -32 -33 -34 -97 -34 l-67 0 -23
51 c-13 28 -39 71 -58 96 l-35 45 43 44 42 43 47 -34 c26 -19 71 -46 101 -60z
m-201 -171 c0 -7 -7 -17 -16 -22 -9 -5 -14 -18 -12 -33 l3 -24 186 -3 c156 -2
188 0 199 13 16 19 6 45 -19 52 -19 5 -19 7 -4 39 19 39 21 39 71 19 73 -31
100 -76 65 -107 -58 -51 -169 -80 -306 -80 -255 0 -403 102 -255 176 l53 27
18 -22 c9 -12 17 -27 17 -35z"/>
</g>
</svg>
